<?xml version="1.0" encoding="UTF-8"?>
<svg id="raikan_cinta" data-name="raikan cinta" xmlns="http://www.w3.org/2000/svg" viewBox="0 0 1080 1920">
  <defs>
    <style>
      .cls-1 {
        font-size: 48.22px;
      }

      .cls-1, .cls-2, .cls-3 {
        font-family: AdobeArabic-Regular, 'Adobe Arabic';
      }

      .cls-1, .cls-2, .cls-3, .cls-4 {
        fill: #584c3b;
      }

      .cls-2 {
        font-size: 48.22px;
      }

      .cls-3 {
        font-size: 48.22px;
      }

      .cls-5, .cls-6, .cls-7, .cls-8 {
        fill: #584b3b;
      }

      .cls-6 {
        font-family: AbrilFatface-Regular, 'Abril Fatface';
        font-size: 27.17px;
      }

      .cls-7 {
        font-family: Montserrat-Regular, Montserrat;
        font-size: 26px;
      }

      .cls-8 {
        font-family: Montserrat-Bold, Montserrat;
        font-size: 43.67px;
        font-weight: 700;
      }
    </style>
  </defs>
  <g>
    <text class="cls-6" transform="translate(510.21 645.06)"><tspan x="0" y="0">8</tspan></text>
    <path class="cls-5" d="m534.02,634.08c0-1.01.68-1.71,1.63-1.71s1.58.71,1.6,1.71c0,.95-.62,1.68-1.63,1.68-.95,0-1.6-.73-1.6-1.68Zm0,9.59c0-1.01.68-1.71,1.63-1.71s1.58.71,1.6,1.71c0,.95-.62,1.69-1.63,1.69-.95,0-1.6-.73-1.6-1.69Z"/>
    <path class="cls-5" d="m546.82,621.88c-.38.78-.75,1.21-1.11,1.3-.96.18-1.65.34-2.07.49-.42.15-1.17.45-2.26.92-.33.15-.58.08-.76-.19-.25-.42.02-.9.82-1.44-.53-.33-.83-.7-.92-1.11-.15-.8.18-1.74.98-2.83.8-1.1,1.66-1.61,2.58-1.52.67.05.98.41.92,1.06-.02.33-.07.6-.15.83-.08.23-.17.41-.26.56-.22.31-.35.48-.41.52-.25.18-.48.14-.68-.14-.2-.29-.43-.44-.71-.46-.29-.02-.51.05-.65.22-.13.16-.13.31,0,.43.56.53,1.4.81,2.53.84.2,0,.47-.04.82-.11.2-.04.36-.07.49-.1.13-.03.24-.04.33-.04.18,0,.33.09.46.27.09.16.11.33.05.49h0Zm-3.51,3.48c.36-.63.59-.57.68.19.38,3.37.6,6.45.65,9.24.05,2.83.11,4.54.16,5.14.07,1.41.93,2.17,2.58,2.28.56.04.88.31.95.82.02.09.02.22.01.39,0,.17-.03.38-.07.61-.07.43-.17.79-.3,1.06-.11.25-.31.38-.6.38-2.55,0-3.91-1.23-4.08-3.7-.04-.56-.07-1.32-.11-2.28-.04-.96-.07-2.11-.11-3.45-.04-1.23-.13-2.5-.29-3.8-.15-1.3-.37-2.65-.64-4.05-.09-.47-.05-.84.14-1.11l1.01-1.71Z"/>
    <path class="cls-5" d="m552.34,641.12c.56.69,1.12,1.06,1.68,1.11.51.05.8.24.87.54.05.22.05.6,0,1.14-.02.27-.06.5-.12.69-.06.19-.12.35-.18.48-.11.25-.3.38-.57.38-1.01,0-1.99-.58-2.93-1.74-1.12,1.16-2.36,1.74-3.7,1.74-.38,0-.63-.24-.73-.73l-.24-1.11c-.05-.29.02-.59.22-.9.2-.33.45-.5.76-.52,2.16-.16,3.48-.7,3.97-1.6.16-.27.33-.41.52-.41.27,0,.41.15.41.46,0,.15,0,.25.03.33.02.07.03.12.03.14Zm-2.09,6.87c.11-.15.26-.19.46-.14.36.13.71.29,1.05.49.33.2.65.43.94.68.14.14.17.31.08.49l-1.3,2.07c-.13.18-.29.2-.49.05-.18-.15-.83-.55-1.96-1.22-.2-.13-.24-.28-.11-.46l1.33-1.96Z"/>
    <path class="cls-5" d="m558.97,641.12c.56.69,1.12,1.06,1.68,1.11.51.05.8.24.87.54.05.22.05.6,0,1.14-.02.27-.06.5-.12.69-.06.19-.12.35-.18.48-.11.25-.3.38-.57.38-1.01,0-1.99-.58-2.93-1.74-1.12,1.16-2.36,1.74-3.7,1.74-.38,0-.62-.24-.73-.73l-.24-1.11c-.05-.29.02-.59.22-.9.2-.33.45-.5.76-.52,2.16-.16,3.48-.7,3.97-1.6.16-.27.34-.41.52-.41.27,0,.41.15.41.46,0,.15,0,.25.03.33.02.07.03.12.03.14Zm-2.23-9.29c.11-.14.26-.19.46-.14.36.13.71.29,1.05.49.34.2.65.43.94.68.14.15.17.31.08.49l-1.3,2.07c-.13.18-.29.2-.49.05-.18-.14-.83-.55-1.96-1.22-.2-.13-.24-.28-.11-.46l1.33-1.96Z"/>
    <path class="cls-5" d="m562.96,629.49c.72,5.34,1,9.01.82,11.01-.29,3.01-1.33,4.66-3.13,4.97-.45.07-.71-.21-.76-.84-.02-.2-.03-.42-.04-.67,0-.24,0-.51.01-.8.04-.58.3-.9.79-.95,1.01-.11,1.66-.42,1.93-.92-.02-.22-.15-1.32-.39-3.3-.24-1.98-.62-4.85-1.13-8.6-.05-.34-.1-.63-.15-.86-.05-.23-.09-.4-.12-.53-.18-.43-.17-.85.03-1.25l.68-1.36c.25-.53.52-.41.79.35.14.36.31.7.5,1.01.19.31.43.58.72.82.38.31.42.66.11,1.06l-.65.87Zm5.14-3.23c.36-.78.6-.6.71.54l.65,6.63c.54,5.94.42,9.68-.38,11.22-.18.33-.35.46-.52.41-.18-.05-.26-.49-.24-1.3.02-.69-.05-1.82-.22-3.41-.16-1.59-.41-3.6-.73-6.05l-.57-4.51c-.05-.38,0-.75.16-1.11l1.14-2.42Z"/>
  </g>
  <text class="cls-8" transform="translate(382.19 366.59)"><tspan x="0" y="0">RAIKAN CINTA</tspan></text>
  <text class="cls-7" transform="translate(286.12 547.98)"><tspan x="0" y="0">“Dan Kami telah menciptakan kamu</tspan><tspan x="99.63" y="31.2">berpasang-pasangan”</tspan></text>
  <g>
    <path class="cls-4" d="m406.68,456c.64-1.12,1.04-1.01,1.21.34.68,5.98,1.06,11.44,1.16,16.39.1,5.01.19,8.05.29,9.11.13,2.51,1.66,3.86,4.58,4.05,1,.06,1.56.55,1.69,1.45.03.16.04.39.02.7-.02.31-.06.67-.12,1.08-.13.77-.31,1.4-.53,1.88-.19.45-.55.68-1.06.68-4.53,0-6.94-2.19-7.23-6.56-.06-1-.13-2.35-.19-4.05-.06-1.7-.13-3.74-.19-6.12-.06-2.19-.23-4.44-.51-6.75-.27-2.31-.65-4.71-1.13-7.18-.16-.84-.08-1.49.24-1.98l1.78-3.04Z"/>
    <text class="cls-3" transform="translate(424.17 476.38)"><tspan x="0" y="0">ً</tspan></text>
    <path class="cls-4" d="m415.16,481.32c-.9.32-1.22-.03-.96-1.06.29-1.12,1.03-2.25,2.22-3.38,1.19-1.12,2.33-1.69,3.42-1.69.55,0,1.49.21,2.84.63,1.35.42,3.05,1.06,5.11,1.93,4.18,1.74,8.79,2.49,13.84,2.27.9-.03,1.06.6.48,1.88l-1.3,2.99c-.29.58-.63.85-1.01.82-1.86-.32-3.66-.43-5.4-.31-1.74.11-3.41.43-5.01.94-1.61.51-3.14,1.05-4.6,1.62-1.46.56-2.84,1.17-4.12,1.81-2.54,1.29-4.79,1.93-6.75,1.93-.51,0-.9-.31-1.16-.92-.42-1.16-.51-2.17-.29-3.04.26-.9.5-1.41.72-1.54.23-.13.45-.22.68-.29,4.95-.29,9.1-1.22,12.44-2.8-4.57-2.06-8.28-2.65-11.14-1.78h0Zm12.05,11.38c.19-.26.47-.34.82-.24.64.22,1.26.51,1.86.87.59.35,1.15.75,1.66,1.21.26.26.31.55.14.87l-2.31,3.66c-.23.32-.51.35-.87.1-.32-.26-1.48-.98-3.47-2.17-.35-.23-.42-.5-.19-.82l2.36-3.47Z"/>
    <path class="cls-4" d="m450.24,457.6c.64-1.38,1.06-1.06,1.25.96l1.16,11.77c.96,10.54.74,17.18-.68,19.91-.32.58-.63.82-.92.72-.32-.1-.47-.87-.43-2.31.03-1.22-.1-3.24-.39-6.05-.29-2.81-.72-6.39-1.3-10.73l-1.01-8c-.1-.68,0-1.33.29-1.98l2.03-4.29Z"/>
    <text class="cls-3" transform="translate(461.32 476.38)"><tspan x="0" y="0">َ</tspan></text>
    <path class="cls-4" d="m464.65,489.28c-2.15-.96-2.41-3.68-.77-8.15,1.25-3.44,2.64-5.14,4.15-5.11,1.12.03,2.14.77,3.04,2.22.84,1.38,1.33,2.97,1.49,4.77.16,1.77-.13,4.13-.87,7.09-.71,2.92-2.11,5.64-4.2,8.15-2.09,2.51-3.84,3.83-5.26,3.95-1.16.16-2.86,0-5.11-.48-1.09-.23-2.07-.46-2.92-.7-.85-.24-1.55-.47-2.1-.7-.35-.16-.48-.43-.39-.82.1-.42.4-.58.92-.48,1.93.29,4.23.13,6.9-.48,1.32-.29,3.25-1.54,5.79-3.76,1.29-1.13,2.32-2.13,3.11-3.01.79-.88,1.29-1.68,1.52-2.39-.03-.16-.09-.36-.17-.6-.08-.24-.17-.51-.27-.8-1.35,1.74-2.97,2.17-4.87,1.3h0Zm.82-6.08c.8.9,1.8.96,2.99.19-.93-1.51-1.93-1.57-2.99-.19h0Z"/>
    <text class="cls-3" transform="translate(484.16 476.38)"><tspan x="0" y="0">ْ</tspan></text>
    <path class="cls-4" d="m486.63,476.74c.06-.29.18-.47.34-.53.35-.1.87.27,1.54,1.11.51.61,1,1.37,1.45,2.27.45.9.84,1.96,1.16,3.18,1.51,5.4.55,10.32-2.89,14.76-1.99,2.57-4.44,4.24-7.33,5.01-1.06.29-1.96.26-2.7-.1-1.41-.61-2.68-1.17-3.79-1.66-1.11-.5-2.07-.94-2.87-1.33-.51-.29-.69-.61-.53-.96.19-.39.55-.51,1.06-.39,2.19.64,3.92.8,5.21.48,1.38-.35,3.15-1.17,5.3-2.46,3.79-2.28,6.09-4.5,6.9-6.65.03-.06.05-.16.05-.29-.29-1.51-1.66-3.54-4.1-6.08-.23-.22-.29-.53-.19-.92l1.4-5.45Zm-4.77-14.42c.19-.26.47-.34.82-.24.64.23,1.26.51,1.86.87.59.35,1.15.76,1.66,1.21.26.26.31.55.14.87l-2.31,3.66c-.23.32-.51.35-.87.1-.32-.26-1.48-.98-3.47-2.17-.35-.22-.42-.5-.19-.82l2.36-3.47Z"/>
    <text class="cls-1" transform="translate(494.18 464.37)"><tspan x="0" y="0">َ</tspan></text>
    <path class="cls-4" d="m505.71,449.83c-.68,1.38-1.33,2.15-1.98,2.31-1.7.32-2.93.61-3.66.87-.74.26-2.07.8-4,1.64-.58.26-1.03.14-1.35-.34-.45-.74.03-1.59,1.45-2.56-.93-.58-1.48-1.24-1.64-1.98-.26-1.41.32-3.09,1.74-5.01,1.41-1.96,2.94-2.86,4.58-2.7,1.19.1,1.74.72,1.64,1.88-.03.58-.12,1.07-.27,1.47-.14.4-.3.73-.46.99-.39.55-.63.85-.72.92-.45.32-.85.24-1.21-.24-.35-.51-.77-.79-1.25-.82-.51-.03-.9.1-1.16.39-.23.29-.23.55,0,.77,1,.93,2.49,1.43,4.48,1.49.35,0,.84-.06,1.45-.19.35-.06.64-.12.87-.17.22-.05.42-.07.58-.07.32,0,.59.16.82.48.16.29.19.58.1.87h0Zm-5.93,7.76c.64-1.38,1.06-1.06,1.25.96l1.16,11.77c.96,10.54.74,17.18-.68,19.91-.32.58-.63.82-.92.72-.32-.1-.47-.87-.43-2.31.03-1.22-.1-3.24-.39-6.05-.29-2.81-.72-6.39-1.3-10.73l-1.01-8c-.1-.68,0-1.33.29-1.98l2.03-4.29Z"/>
    <text class="cls-1" transform="translate(530.47 476.38)"><tspan x="0" y="0">ْ</tspan></text>
    <path class="cls-4" d="m530.53,482.04c.68-1.96,1.46-2.41,2.36-1.35,2.8,3.28,6.81,5.01,12.05,5.21,1.61.06,2.23,1.04,1.88,2.94-.35,1.9-.98,2.84-1.88,2.84-1.41.03-2.76-.1-4.03-.39-1.27-.29-2.47-.69-3.59-1.21,0,3.05-.71,5.14-2.12,6.27-.64.48-1.27.47-1.88-.05-1.86-1.67-3.02-4.12-3.47-7.33-1.74.23-3.3,1.06-4.68,2.51-.16.71,0,2.62.48,5.74,1.74,11.6,2.39,18.35,1.98,20.25-.29,1.22-.77,1.83-1.45,1.83s-1-.72-1.06-2.17c-.03-1.13-.2-2.81-.51-5.06-.31-2.25-.73-5.08-1.28-8.49-1.13-6.88-1.09-11.78.1-14.71,1.19-2.96,3.55-5.24,7.09-6.85h0Z"/>
    <text class="cls-1" transform="translate(555.14 476.38)"><tspan x="0" y="0">ُ</tspan></text>
    <path class="cls-4" d="m542.9,487.44c.35-1.19,1.06-1.7,2.12-1.54,5.11.68,9.08-.31,11.91-2.94-2.89-3.86-5.95-6.41-9.16-7.67-.77-.29-1.21-1.62-1.3-4-.1-2.44.45-4.21,1.64-5.3,4.89-4.47,13.18-8.45,24.88-11.96.84-.26,1.14.02.92.82l-1.16,4.24c-.19.71-.56,1.16-1.11,1.35-6.2,2.15-11.25,4.05-15.14,5.69-3.89,1.64-6.59,2.99-8.1,4.05,6.72,3.63,10.08,7.8,10.08,12.49s-1.64,7.65-4.92,8.49c-3.5.87-6.56,1.06-9.16.58-.71-.13-1.14-.69-1.3-1.69-.1-.74-.16-1.33-.19-1.76-.03-.43-.03-.71,0-.84h0Z"/>
    <path class="cls-4" d="m580.49,456c.64-1.12,1.04-1.01,1.21.34.68,5.98,1.06,11.44,1.16,16.39.1,5.01.19,8.05.29,9.11.13,2.51,1.66,3.86,4.58,4.05,1,.06,1.56.55,1.69,1.45.03.16.04.39.02.7-.02.31-.06.67-.12,1.08-.13.77-.31,1.4-.53,1.88-.19.45-.55.67-1.06.67-4.53,0-6.94-2.19-7.23-6.56-.06-1-.13-2.35-.19-4.05-.06-1.7-.13-3.74-.19-6.12-.06-2.19-.23-4.44-.51-6.75-.27-2.31-.65-4.71-1.13-7.18-.16-.84-.08-1.49.24-1.98l1.78-3.04Z"/>
    <text class="cls-1" transform="translate(586.99 476.38)"><tspan x="0" y="0">َ</tspan></text>
    <path class="cls-4" d="m596.5,483.97c1,1.22,1.99,1.88,2.99,1.98.9.1,1.41.42,1.54.96.1.39.1,1.06,0,2.03-.03.48-.1.89-.22,1.23-.11.34-.22.62-.31.84-.19.45-.53.68-1.01.68-1.8,0-3.54-1.03-5.21-3.09-1.99,2.06-4.18,3.09-6.56,3.09-.68,0-1.11-.43-1.3-1.3l-.43-1.98c-.1-.51.03-1.04.39-1.59.35-.58.8-.88,1.35-.92,3.83-.29,6.17-1.24,7.04-2.84.29-.48.59-.72.92-.72.48,0,.72.27.72.82,0,.26.02.45.05.58.03.13.05.21.05.24Zm-3.95-16.49c.19-.26.47-.34.82-.24.64.23,1.26.51,1.86.87.59.35,1.15.76,1.66,1.21.26.26.31.55.14.87l-2.31,3.66c-.23.32-.51.35-.87.1-.32-.26-1.48-.98-3.47-2.17-.35-.22-.42-.5-.19-.82l2.36-3.47Z"/>
    <text class="cls-1" transform="translate(609.64 476.38)"><tspan x="0" y="0">ْ</tspan></text>
    <path class="cls-4" d="m610.18,473.27c1.12-.87,2.11-1.3,2.94-1.3.29,0,.56.06.82.19.93.55,1.54,1.59,1.83,3.13.42,2.57.11,5.01-.92,7.33-.19.42-.39.82-.6,1.21-.21.39-.44.79-.7,1.21,1.61.51,3.01.8,4.2.87.71.03,1.12.77,1.25,2.22.13,1.45.03,2.43-.29,2.94-.26.39-.56.59-.92.63-2.7.29-6.06-.61-10.08-2.7-1.16.51-2.65,1.09-4.48,1.74-1.86.64-3.13.96-3.81.96-.74,0-1.22-.47-1.45-1.4-.13-.48-.18-.96-.17-1.45.02-.48.07-.95.17-1.4.19-.87.66-1.38,1.4-1.54,1.54-.22,3.02-.56,4.44-1.01-.03-.71,0-1.42.1-2.15.1-.72.29-1.45.58-2.19,1.06-2.8,2.96-5.22,5.69-7.28h0Zm.29-14.66c.19-.26.47-.34.82-.24.64.23,1.27.51,1.88.87.61.35,1.17.76,1.69,1.21.26.26.31.55.14.87l-2.31,3.66c-.26.35-.55.39-.87.1-.13-.13-.41-.33-.84-.6-.43-.27-1.01-.62-1.71-1.04l-1.59,2.6c-.23.32-.51.35-.87.1-.16-.13-.54-.37-1.13-.72-.6-.35-1.39-.84-2.39-1.45-.35-.19-.4-.47-.14-.82l2.31-3.47c.19-.26.47-.34.82-.24.96.32,1.86.79,2.7,1.4l1.49-2.22Zm2.22,23.05c0-2.09-.63-3.15-1.88-3.18-1.67-.03-3.07.71-4.2,2.22,1.29,2.67,3.31,2.99,6.08.96h0Z"/>
    <text class="cls-1" transform="translate(616 476.38)"><tspan x="0" y="0">َ</tspan></text>
    <path class="cls-4" d="m627.24,491.69c-2.22,0-3.91-2.09-5.06-6.27-.68,4.18-2.17,6.27-4.48,6.27-.61,0-1.01-.34-1.21-1.01-.77-2.67-.37-4.24,1.21-4.73,1.86-.58,2.8-1.83,2.8-3.76l-.82-20.88c-.03-.74.08-1.24.34-1.49l1.78-2.03c.61-.71.92-.31.92,1.21l.53,11.14c.26,5.92.5,9.53.72,10.85.58,2.93,1.67,4.58,3.28,4.97.77.19,1.21.92,1.3,2.17.1,1.22-.03,2.23-.39,3.04-.19.35-.5.53-.92.53h0Z"/>
    <text class="cls-1" transform="translate(636.82 476.38)"><tspan x="0" y="0">َ</tspan></text>
    <path class="cls-4" d="m628.44,481.32c-.9.32-1.22-.03-.96-1.06.29-1.12,1.03-2.25,2.22-3.38,1.19-1.12,2.33-1.69,3.42-1.69.55,0,1.49.21,2.84.63,1.35.42,3.05,1.06,5.11,1.93,4.18,1.74,8.79,2.49,13.84,2.27.9-.03,1.06.6.48,1.88l-1.3,2.99c-.29.58-.63.85-1.01.82-1.86-.32-3.66-.43-5.4-.31-1.74.11-3.41.43-5.01.94-1.61.51-3.14,1.05-4.6,1.62-1.46.56-2.84,1.17-4.12,1.81-2.54,1.29-4.79,1.93-6.75,1.93-.51,0-.9-.31-1.16-.92-.42-1.16-.51-2.17-.29-3.04.26-.9.5-1.41.72-1.54.23-.13.45-.22.68-.29,4.95-.29,9.1-1.22,12.44-2.8-4.56-2.06-8.28-2.65-11.14-1.78h0Zm12.05-15.77c.19-.26.47-.34.82-.24.64.23,1.26.51,1.86.87.59.35,1.15.76,1.66,1.21.26.26.31.55.14.87l-2.31,3.66c-.23.32-.51.35-.87.1-.32-.26-1.48-.98-3.47-2.17-.35-.22-.42-.5-.19-.82l2.36-3.47Z"/>
    <text class="cls-2" transform="translate(664.14 476.38)"><tspan x="0" y="0">َ</tspan></text>
    <path class="cls-4" d="m667.48,489.28c-2.15-.96-2.41-3.68-.77-8.15,1.25-3.44,2.64-5.14,4.15-5.11,1.12.03,2.14.77,3.04,2.22.84,1.38,1.33,2.97,1.49,4.77.16,1.77-.13,4.13-.87,7.09-.71,2.92-2.11,5.64-4.2,8.15-2.09,2.51-3.84,3.83-5.26,3.95-1.16.16-2.86,0-5.11-.48-1.09-.23-2.07-.46-2.92-.7-.85-.24-1.55-.47-2.1-.7-.35-.16-.48-.43-.39-.82.1-.42.4-.58.92-.48,1.93.29,4.23.13,6.9-.48,1.32-.29,3.25-1.54,5.79-3.76,1.29-1.13,2.32-2.13,3.11-3.01.79-.88,1.29-1.68,1.52-2.39-.03-.16-.09-.36-.17-.6-.08-.24-.17-.51-.27-.8-1.35,1.74-2.97,2.17-4.87,1.3h0Zm.82-6.08c.8.9,1.8.96,2.99.19-.93-1.51-1.93-1.57-2.99-.19h0Z"/>
  </g>
  <g>
    <circle class="cls-5" cx="497.43" cy="635.07" r=".8"/>
    <g>
      <path class="cls-5" d="m496.24,639.73c0-.5.7-2.48,1.03-3.38.06-.16.28-.16.34,0,.33.9,1.02,2.87,1.02,3.38,0,.66-.53,1.19-1.19,1.19s-1.19-.53-1.19-1.19Z"/>
      <path class="cls-5" d="m493.29,637.53c.36-.36,2.25-1.26,3.11-1.66.15-.07.31.09.24.24-.4.87-1.31,2.75-1.67,3.11-.46.46-1.22.46-1.68,0s-.46-1.22,0-1.68Z"/>
      <path class="cls-5" d="m492.76,633.88c.5,0,2.48.7,3.38,1.03.16.06.16.28,0,.34-.9.33-2.87,1.02-3.38,1.02-.66,0-1.19-.53-1.19-1.19s.53-1.19,1.19-1.19Z"/>
      <path class="cls-5" d="m494.97,630.93c.36.36,1.26,2.25,1.66,3.11.07.15-.09.31-.24.24-.87-.4-2.75-1.31-3.11-1.67-.46-.46-.46-1.22,0-1.68s1.22-.46,1.68,0Z"/>
      <path class="cls-5" d="m498.62,630.4c0,.5-.7,2.48-1.03,3.38-.06.16-.28.16-.34,0-.33-.9-1.02-2.87-1.02-3.38,0-.66.53-1.19,1.19-1.19s1.19.53,1.19,1.19Z"/>
      <path class="cls-5" d="m501.57,632.61c-.36.36-2.25,1.26-3.11,1.66-.15.07-.31-.09-.24-.24.4-.87,1.31-2.75,1.67-3.11.46-.46,1.22-.46,1.68,0s.46,1.22,0,1.68Z"/>
      <path class="cls-5" d="m502.09,636.26c-.5,0-2.48-.7-3.38-1.03-.16-.06-.16-.28,0-.34.9-.33,2.87-1.02,3.38-1.02.66,0,1.19.53,1.19,1.19s-.53,1.19-1.19,1.19Z"/>
      <path class="cls-5" d="m499.89,639.21c-.36-.36-1.26-2.25-1.66-3.11-.07-.15.09-.31.24-.24.87.4,2.75,1.31,3.11,1.67.46.46.46,1.22,0,1.68s-1.22.46-1.68,0Z"/>
    </g>
  </g>
  <g>
    <circle class="cls-5" cx="585.95" cy="635.07" r=".8"/>
    <g>
      <path class="cls-5" d="m584.76,639.73c0-.5.7-2.48,1.03-3.38.06-.16.28-.16.34,0,.33.9,1.02,2.87,1.02,3.38,0,.66-.53,1.19-1.19,1.19s-1.19-.53-1.19-1.19Z"/>
      <path class="cls-5" d="m581.81,637.53c.36-.36,2.25-1.26,3.11-1.66.15-.07.31.09.24.24-.4.87-1.31,2.75-1.67,3.11-.46.46-1.22.46-1.68,0s-.46-1.22,0-1.68Z"/>
      <path class="cls-5" d="m581.29,633.88c.5,0,2.48.7,3.38,1.03.16.06.16.28,0,.34-.9.33-2.87,1.02-3.38,1.02-.66,0-1.19-.53-1.19-1.19s.53-1.19,1.19-1.19Z"/>
      <path class="cls-5" d="m583.5,630.93c.36.36,1.26,2.25,1.66,3.11.07.15-.09.31-.24.24-.87-.4-2.75-1.31-3.11-1.67-.46-.46-.46-1.22,0-1.68s1.22-.46,1.68,0Z"/>
      <path class="cls-5" d="m587.14,630.4c0,.5-.7,2.48-1.03,3.38-.06.16-.28.16-.34,0-.33-.9-1.02-2.87-1.02-3.38,0-.66.53-1.19,1.19-1.19s1.19.53,1.19,1.19Z"/>
      <path class="cls-5" d="m590.09,632.61c-.36.36-2.25,1.26-3.11,1.66-.15.07-.31-.09-.24-.24.4-.87,1.31-2.75,1.67-3.11.46-.46,1.22-.46,1.68,0s.46,1.22,0,1.68Z"/>
      <path class="cls-5" d="m590.62,636.26c-.5,0-2.48-.7-3.38-1.03-.16-.06-.16-.28,0-.34.9-.33,2.87-1.02,3.38-1.02.66,0,1.19.53,1.19,1.19s-.53,1.19-1.19,1.19Z"/>
      <path class="cls-5" d="m588.41,639.21c-.36-.36-1.26-2.25-1.66-3.11-.07-.15.09-.31.24-.24.87.4,2.75,1.31,3.11,1.67.46.46.46,1.22,0,1.68s-1.22.46-1.68,0Z"/>
    </g>
  </g>
</svg>